<svg width="224" height="48" viewBox="0 0 224 48" fill="none" xmlns="http://www.w3.org/2000/svg">
<rect width="224" height="48" rx="3" fill="#23EDE8"/>
<path d="M37.4375 30V17.1328H41.1025C41.8115 17.1328 42.4092 17.1475 42.8955 17.1768C43.3877 17.2061 43.792 17.2559 44.1084 17.3262C44.6533 17.4551 45.1396 17.6777 45.5674 17.9941C46.0361 18.3457 46.3906 18.7969 46.6309 19.3477C46.8828 19.875 47.0088 20.4727 47.0088 21.1406C47.0088 22.1309 46.7627 22.9424 46.2705 23.5752C45.79 24.208 45.0781 24.6211 44.1348 24.8145L47.6416 30H43.6777L40.7246 24.9639V30H37.4375ZM40.7246 23.2148H41.375C42.1426 23.2148 42.6963 23.0889 43.0361 22.8369C43.3818 22.5557 43.5547 22.1484 43.5547 21.6152C43.5547 20.9707 43.3936 20.5137 43.0713 20.2441C42.7432 19.9688 42.1953 19.8311 41.4277 19.8311H40.7246V23.2148ZM54.8838 24.4189C54.8311 23.9268 54.6406 23.5254 54.3125 23.2148C53.9844 22.9043 53.583 22.749 53.1084 22.749C52.6104 22.749 52.2061 22.8867 51.8955 23.1621C51.5732 23.4727 51.3711 23.8916 51.2891 24.4189H54.8838ZM57.9688 26.1855H51.2188C51.2363 26.877 51.4092 27.4043 51.7373 27.7676C52.0771 28.1426 52.5693 28.3301 53.2139 28.3301C53.6826 28.3301 54.084 28.2393 54.418 28.0576C54.7578 27.8643 55.0039 27.6006 55.1562 27.2666L57.5117 28.2158C57.2363 28.8896 56.7383 29.4111 56.0176 29.7803C55.3027 30.1553 54.4268 30.3428 53.3896 30.3428C51.8428 30.3428 50.6006 29.9092 49.6631 29.042C48.7314 28.1982 48.2656 27.0703 48.2656 25.6582C48.2656 24.2812 48.7314 23.1299 49.6631 22.2041C50.5947 21.2959 51.7783 20.8418 53.2139 20.8418C54.6787 20.8418 55.8359 21.3018 56.6855 22.2217C57.1191 22.6963 57.4414 23.25 57.6523 23.8828C57.8633 24.5098 57.9688 25.2275 57.9688 26.0361V26.1855ZM66.5381 25.5352C66.5381 24.8496 66.3594 24.3105 66.002 23.918C65.6152 23.5312 65.1055 23.3379 64.4727 23.3379C63.8398 23.3379 63.3301 23.5312 62.9434 23.918C62.5684 24.3105 62.3809 24.8496 62.3809 25.5352C62.3809 26.2266 62.5684 26.7598 62.9434 27.1348C63.3242 27.5332 63.834 27.7324 64.4727 27.7324C65.0996 27.7324 65.6035 27.5332 65.9844 27.1348C66.3535 26.7656 66.5381 26.2324 66.5381 25.5352ZM69.2891 21.123V29.9824C69.2891 31.3242 68.8818 32.3145 68.0674 32.9531C67.6748 33.2695 67.1592 33.5098 66.5205 33.6738C65.8818 33.8379 65.1318 33.9199 64.2705 33.9199C62.8701 33.9199 61.7832 33.6621 61.0098 33.1465C60.2363 32.625 59.8232 31.9014 59.7705 30.9756H63.0137C63.0723 31.2568 63.2275 31.4707 63.4795 31.6172C63.7373 31.7754 64.0801 31.8545 64.5078 31.8545C65.1758 31.8545 65.6416 31.6934 65.9053 31.3711C66.1572 31.0488 66.2832 30.3633 66.2832 29.3145V28.5059C65.9492 29.0684 65.5303 29.4814 65.0264 29.7451C64.5049 30.0205 63.8984 30.1582 63.207 30.1582C62.0352 30.1582 61.0947 29.7334 60.3857 28.8838C60.04 28.4678 59.7764 27.9785 59.5947 27.416C59.4131 26.8477 59.3223 26.209 59.3223 25.5C59.3223 24.082 59.6943 22.9482 60.4385 22.0986C60.8076 21.6768 61.2412 21.3633 61.7393 21.1582C62.2432 20.9473 62.8057 20.8418 63.4268 20.8418C64.0889 20.8418 64.6631 20.9795 65.1494 21.2549C65.6299 21.5127 66.0459 21.9434 66.3975 22.5469V21.123H69.2891ZM71.583 30V21.123H74.7119V30H71.583ZM71.9785 18.8379H71.9961C71.9961 18.5098 72.1104 18.2402 72.3389 18.0293C72.5674 17.8008 72.8428 17.6865 73.165 17.6865C73.5049 17.6865 73.7832 17.7949 74 18.0117C74.2227 18.2285 74.334 18.5039 74.334 18.8379C74.334 19.1777 74.2197 19.459 73.9912 19.6816C73.7686 19.9102 73.4932 20.0244 73.165 20.0244C72.8311 20.0244 72.5498 19.9043 72.3213 19.6641C72.0928 19.4414 71.9785 19.166 71.9785 18.8379ZM76.4521 29.2617L77.1025 26.8711C77.5596 27.2754 78.0635 27.5801 78.6143 27.7852C79.1592 28.002 79.71 28.1104 80.2666 28.1104C80.665 28.1104 80.9639 28.043 81.1631 27.9082C81.3682 27.7852 81.4707 27.6064 81.4707 27.3721C81.4707 26.9795 81.0576 26.6865 80.2314 26.4932C79.9443 26.4287 79.7275 26.373 79.5811 26.3262C78.626 26.0449 77.9492 25.7021 77.5508 25.2979C77.1172 24.8818 76.9004 24.3428 76.9004 23.6807C76.9004 22.8252 77.2256 22.1367 77.876 21.6152C78.5029 21.0996 79.3789 20.8418 80.5039 20.8418C81.0488 20.8418 81.6289 20.9062 82.2441 21.0352C82.7598 21.1406 83.3604 21.3457 84.0459 21.6504L83.3955 23.8037C82.9736 23.5166 82.5488 23.3027 82.1211 23.1621C81.7168 23.0156 81.292 22.9424 80.8467 22.9424C80.4834 22.9424 80.2109 22.998 80.0293 23.1094C79.8535 23.2148 79.7656 23.376 79.7656 23.5928C79.7656 23.8975 80.1787 24.1611 81.0049 24.3838C81.2744 24.4658 81.4121 24.5068 81.418 24.5068C82.4961 24.8115 83.252 25.1719 83.6855 25.5879C84.1074 26.0273 84.3184 26.5986 84.3184 27.3018C84.3184 28.21 83.9697 28.9424 83.2725 29.499C82.5576 30.0615 81.6348 30.3428 80.5039 30.3428C79.7188 30.3428 78.9951 30.252 78.333 30.0703C77.6768 29.8945 77.0498 29.625 76.4521 29.2617ZM86.498 30L86.4805 23.3379H85.1533V21.123H86.4805V18.4775H89.583V21.123H90.8926V23.3379H89.583V30H86.498ZM98.4775 24.4189C98.4248 23.9268 98.2344 23.5254 97.9062 23.2148C97.5781 22.9043 97.1768 22.749 96.7021 22.749C96.2041 22.749 95.7998 22.8867 95.4893 23.1621C95.167 23.4727 94.9648 23.8916 94.8828 24.4189H98.4775ZM101.562 26.1855H94.8125C94.8301 26.877 95.0029 27.4043 95.3311 27.7676C95.6709 28.1426 96.1631 28.3301 96.8076 28.3301C97.2764 28.3301 97.6777 28.2393 98.0117 28.0576C98.3516 27.8643 98.5977 27.6006 98.75 27.2666L101.105 28.2158C100.83 28.8896 100.332 29.4111 99.6113 29.7803C98.8965 30.1553 98.0205 30.3428 96.9834 30.3428C95.4365 30.3428 94.1943 29.9092 93.2568 29.042C92.3252 28.1982 91.8594 27.0703 91.8594 25.6582C91.8594 24.2812 92.3252 23.1299 93.2568 22.2041C94.1885 21.2959 95.3721 20.8418 96.8076 20.8418C98.2725 20.8418 99.4297 21.3018 100.279 22.2217C100.713 22.6963 101.035 23.25 101.246 23.8828C101.457 24.5098 101.562 25.2275 101.562 26.0361V26.1855ZM103.382 30V21.123H106.335V23.2148C106.646 22.4473 107.059 21.876 107.574 21.501C108.107 21.1201 108.749 20.9297 109.499 20.9297C109.669 20.9297 109.795 20.9355 109.877 20.9473C109.941 20.9531 110 20.959 110.053 20.9648C110.105 20.9648 110.173 20.9707 110.255 20.9824L109.956 23.8301C109.739 23.7598 109.552 23.71 109.394 23.6807C109.159 23.6572 108.986 23.6455 108.875 23.6455C108.113 23.6455 107.524 23.8799 107.108 24.3486C106.698 24.8115 106.493 25.4707 106.493 26.3262V30H103.382ZM117.277 30V17.1328H120.661L125.521 23.751C125.645 23.9326 125.8 24.2051 125.987 24.5684C126.228 25.0371 126.462 25.5205 126.69 26.0186C126.603 25.3447 126.553 24.873 126.541 24.6035C126.506 24.1816 126.488 23.8096 126.488 23.4873V17.1328H129.854V30H126.488L121.628 23.3555C121.558 23.2617 121.402 22.9863 121.162 22.5293C120.951 22.1543 120.717 21.6797 120.459 21.1055C120.518 21.5625 120.573 22.0371 120.626 22.5293C120.649 23.0801 120.661 23.4521 120.661 23.6455V30H117.277ZM138.705 25.5879C138.705 24.9258 138.538 24.4043 138.204 24.0234C137.858 23.6426 137.407 23.4521 136.851 23.4521C136.276 23.4521 135.825 23.6426 135.497 24.0234C135.163 24.3926 134.996 24.9141 134.996 25.5879C134.996 26.2441 135.157 26.7598 135.479 27.1348C135.831 27.5215 136.288 27.7148 136.851 27.7148C137.413 27.7148 137.87 27.5215 138.222 27.1348C138.544 26.748 138.705 26.2324 138.705 25.5879ZM141.816 25.5879C141.816 26.2383 141.69 26.8447 141.438 27.4072C141.175 28.0049 140.814 28.5205 140.357 28.9541C139.842 29.4346 139.309 29.7832 138.758 30C138.184 30.2285 137.548 30.3428 136.851 30.3428C136.147 30.3428 135.512 30.2285 134.943 30C134.363 29.7715 133.827 29.4258 133.335 28.9629C132.849 28.4941 132.497 27.9756 132.28 27.4072C132.028 26.8623 131.902 26.2559 131.902 25.5879C131.902 24.9375 132.028 24.3252 132.28 23.751C132.515 23.1709 132.869 22.6553 133.344 22.2041C133.807 21.7588 134.34 21.416 134.943 21.1758C135.518 20.9531 136.153 20.8418 136.851 20.8418C137.542 20.8418 138.178 20.9531 138.758 21.1758C139.361 21.416 139.895 21.7588 140.357 22.2041C140.844 22.6436 141.204 23.1592 141.438 23.751C141.69 24.3252 141.816 24.9375 141.816 25.5879ZM150.641 21.123L151.95 25.0518C151.95 25.0752 151.956 25.0986 151.968 25.1221C152.167 25.6436 152.293 26.0801 152.346 26.4316C152.363 26.3496 152.413 26.1533 152.495 25.8428C152.571 25.5498 152.647 25.2861 152.724 25.0518L154.06 21.123H157.303L153.576 30H151.361L150.043 25.9834C149.996 25.8311 149.938 25.5967 149.867 25.2803C149.832 25.1279 149.803 25.0049 149.779 24.9111C149.756 24.8174 149.729 24.7148 149.7 24.6035C149.612 25.0488 149.498 25.4912 149.357 25.9307L149.34 25.9834L148.03 30H145.815L142.106 21.123H145.332L146.659 25.0518C146.718 25.2393 146.765 25.3857 146.8 25.4912C146.841 25.5967 146.873 25.7021 146.896 25.8076C146.961 26.0713 147.008 26.2793 147.037 26.4316C147.084 26.1562 147.198 25.749 147.38 25.21C147.397 25.1396 147.415 25.0869 147.433 25.0518L148.751 21.123H150.641Z" fill="white"/>
<path d="M37.4375 30V17.1328H41.1025C41.8115 17.1328 42.4092 17.1475 42.8955 17.1768C43.3877 17.2061 43.792 17.2559 44.1084 17.3262C44.6533 17.4551 45.1396 17.6777 45.5674 17.9941C46.0361 18.3457 46.3906 18.7969 46.6309 19.3477C46.8828 19.875 47.0088 20.4727 47.0088 21.1406C47.0088 22.1309 46.7627 22.9424 46.2705 23.5752C45.79 24.208 45.0781 24.6211 44.1348 24.8145L47.6416 30H43.6777L40.7246 24.9639V30H37.4375ZM40.7246 23.2148H41.375C42.1426 23.2148 42.6963 23.0889 43.0361 22.8369C43.3818 22.5557 43.5547 22.1484 43.5547 21.6152C43.5547 20.9707 43.3936 20.5137 43.0713 20.2441C42.7432 19.9688 42.1953 19.8311 41.4277 19.8311H40.7246V23.2148ZM54.8838 24.4189C54.8311 23.9268 54.6406 23.5254 54.3125 23.2148C53.9844 22.9043 53.583 22.749 53.1084 22.749C52.6104 22.749 52.2061 22.8867 51.8955 23.1621C51.5732 23.4727 51.3711 23.8916 51.2891 24.4189H54.8838ZM57.9688 26.1855H51.2188C51.2363 26.877 51.4092 27.4043 51.7373 27.7676C52.0771 28.1426 52.5693 28.3301 53.2139 28.3301C53.6826 28.3301 54.084 28.2393 54.418 28.0576C54.7578 27.8643 55.0039 27.6006 55.1562 27.2666L57.5117 28.2158C57.2363 28.8896 56.7383 29.4111 56.0176 29.7803C55.3027 30.1553 54.4268 30.3428 53.3896 30.3428C51.8428 30.3428 50.6006 29.9092 49.6631 29.042C48.7314 28.1982 48.2656 27.0703 48.2656 25.6582C48.2656 24.2812 48.7314 23.1299 49.6631 22.2041C50.5947 21.2959 51.7783 20.8418 53.2139 20.8418C54.6787 20.8418 55.8359 21.3018 56.6855 22.2217C57.1191 22.6963 57.4414 23.25 57.6523 23.8828C57.8633 24.5098 57.9688 25.2275 57.9688 26.0361V26.1855ZM66.5381 25.5352C66.5381 24.8496 66.3594 24.3105 66.002 23.918C65.6152 23.5312 65.1055 23.3379 64.4727 23.3379C63.8398 23.3379 63.3301 23.5312 62.9434 23.918C62.5684 24.3105 62.3809 24.8496 62.3809 25.5352C62.3809 26.2266 62.5684 26.7598 62.9434 27.1348C63.3242 27.5332 63.834 27.7324 64.4727 27.7324C65.0996 27.7324 65.6035 27.5332 65.9844 27.1348C66.3535 26.7656 66.5381 26.2324 66.5381 25.5352ZM69.2891 21.123V29.9824C69.2891 31.3242 68.8818 32.3145 68.0674 32.9531C67.6748 33.2695 67.1592 33.5098 66.5205 33.6738C65.8818 33.8379 65.1318 33.9199 64.2705 33.9199C62.8701 33.9199 61.7832 33.6621 61.0098 33.1465C60.2363 32.625 59.8232 31.9014 59.7705 30.9756H63.0137C63.0723 31.2568 63.2275 31.4707 63.4795 31.6172C63.7373 31.7754 64.0801 31.8545 64.5078 31.8545C65.1758 31.8545 65.6416 31.6934 65.9053 31.3711C66.1572 31.0488 66.2832 30.3633 66.2832 29.3145V28.5059C65.9492 29.0684 65.5303 29.4814 65.0264 29.7451C64.5049 30.0205 63.8984 30.1582 63.207 30.1582C62.0352 30.1582 61.0947 29.7334 60.3857 28.8838C60.04 28.4678 59.7764 27.9785 59.5947 27.416C59.4131 26.8477 59.3223 26.209 59.3223 25.5C59.3223 24.082 59.6943 22.9482 60.4385 22.0986C60.8076 21.6768 61.2412 21.3633 61.7393 21.1582C62.2432 20.9473 62.8057 20.8418 63.4268 20.8418C64.0889 20.8418 64.6631 20.9795 65.1494 21.2549C65.6299 21.5127 66.0459 21.9434 66.3975 22.5469V21.123H69.2891ZM71.583 30V21.123H74.7119V30H71.583ZM71.9785 18.8379H71.9961C71.9961 18.5098 72.1104 18.2402 72.3389 18.0293C72.5674 17.8008 72.8428 17.6865 73.165 17.6865C73.5049 17.6865 73.7832 17.7949 74 18.0117C74.2227 18.2285 74.334 18.5039 74.334 18.8379C74.334 19.1777 74.2197 19.459 73.9912 19.6816C73.7686 19.9102 73.4932 20.0244 73.165 20.0244C72.8311 20.0244 72.5498 19.9043 72.3213 19.6641C72.0928 19.4414 71.9785 19.166 71.9785 18.8379ZM76.4521 29.2617L77.1025 26.8711C77.5596 27.2754 78.0635 27.5801 78.6143 27.7852C79.1592 28.002 79.71 28.1104 80.2666 28.1104C80.665 28.1104 80.9639 28.043 81.1631 27.9082C81.3682 27.7852 81.4707 27.6064 81.4707 27.3721C81.4707 26.9795 81.0576 26.6865 80.2314 26.4932C79.9443 26.4287 79.7275 26.373 79.5811 26.3262C78.626 26.0449 77.9492 25.7021 77.5508 25.2979C77.1172 24.8818 76.9004 24.3428 76.9004 23.6807C76.9004 22.8252 77.2256 22.1367 77.876 21.6152C78.5029 21.0996 79.3789 20.8418 80.5039 20.8418C81.0488 20.8418 81.6289 20.9062 82.2441 21.0352C82.7598 21.1406 83.3604 21.3457 84.0459 21.6504L83.3955 23.8037C82.9736 23.5166 82.5488 23.3027 82.1211 23.1621C81.7168 23.0156 81.292 22.9424 80.8467 22.9424C80.4834 22.9424 80.2109 22.998 80.0293 23.1094C79.8535 23.2148 79.7656 23.376 79.7656 23.5928C79.7656 23.8975 80.1787 24.1611 81.0049 24.3838C81.2744 24.4658 81.4121 24.5068 81.418 24.5068C82.4961 24.8115 83.252 25.1719 83.6855 25.5879C84.1074 26.0273 84.3184 26.5986 84.3184 27.3018C84.3184 28.21 83.9697 28.9424 83.2725 29.499C82.5576 30.0615 81.6348 30.3428 80.5039 30.3428C79.7188 30.3428 78.9951 30.252 78.333 30.0703C77.6768 29.8945 77.0498 29.625 76.4521 29.2617ZM86.498 30L86.4805 23.3379H85.1533V21.123H86.4805V18.4775H89.583V21.123H90.8926V23.3379H89.583V30H86.498ZM98.4775 24.4189C98.4248 23.9268 98.2344 23.5254 97.9062 23.2148C97.5781 22.9043 97.1768 22.749 96.7021 22.749C96.2041 22.749 95.7998 22.8867 95.4893 23.1621C95.167 23.4727 94.9648 23.8916 94.8828 24.4189H98.4775ZM101.562 26.1855H94.8125C94.8301 26.877 95.0029 27.4043 95.3311 27.7676C95.6709 28.1426 96.1631 28.3301 96.8076 28.3301C97.2764 28.3301 97.6777 28.2393 98.0117 28.0576C98.3516 27.8643 98.5977 27.6006 98.75 27.2666L101.105 28.2158C100.83 28.8896 100.332 29.4111 99.6113 29.7803C98.8965 30.1553 98.0205 30.3428 96.9834 30.3428C95.4365 30.3428 94.1943 29.9092 93.2568 29.042C92.3252 28.1982 91.8594 27.0703 91.8594 25.6582C91.8594 24.2812 92.3252 23.1299 93.2568 22.2041C94.1885 21.2959 95.3721 20.8418 96.8076 20.8418C98.2725 20.8418 99.4297 21.3018 100.279 22.2217C100.713 22.6963 101.035 23.25 101.246 23.8828C101.457 24.5098 101.562 25.2275 101.562 26.0361V26.1855ZM103.382 30V21.123H106.335V23.2148C106.646 22.4473 107.059 21.876 107.574 21.501C108.107 21.1201 108.749 20.9297 109.499 20.9297C109.669 20.9297 109.795 20.9355 109.877 20.9473C109.941 20.9531 110 20.959 110.053 20.9648C110.105 20.9648 110.173 20.9707 110.255 20.9824L109.956 23.8301C109.739 23.7598 109.552 23.71 109.394 23.6807C109.159 23.6572 108.986 23.6455 108.875 23.6455C108.113 23.6455 107.524 23.8799 107.108 24.3486C106.698 24.8115 106.493 25.4707 106.493 26.3262V30H103.382ZM117.277 30V17.1328H120.661L125.521 23.751C125.645 23.9326 125.8 24.2051 125.987 24.5684C126.228 25.0371 126.462 25.5205 126.69 26.0186C126.603 25.3447 126.553 24.873 126.541 24.6035C126.506 24.1816 126.488 23.8096 126.488 23.4873V17.1328H129.854V30H126.488L121.628 23.3555C121.558 23.2617 121.402 22.9863 121.162 22.5293C120.951 22.1543 120.717 21.6797 120.459 21.1055C120.518 21.5625 120.573 22.0371 120.626 22.5293C120.649 23.0801 120.661 23.4521 120.661 23.6455V30H117.277ZM138.705 25.5879C138.705 24.9258 138.538 24.4043 138.204 24.0234C137.858 23.6426 137.407 23.4521 136.851 23.4521C136.276 23.4521 135.825 23.6426 135.497 24.0234C135.163 24.3926 134.996 24.9141 134.996 25.5879C134.996 26.2441 135.157 26.7598 135.479 27.1348C135.831 27.5215 136.288 27.7148 136.851 27.7148C137.413 27.7148 137.87 27.5215 138.222 27.1348C138.544 26.748 138.705 26.2324 138.705 25.5879ZM141.816 25.5879C141.816 26.2383 141.69 26.8447 141.438 27.4072C141.175 28.0049 140.814 28.5205 140.357 28.9541C139.842 29.4346 139.309 29.7832 138.758 30C138.184 30.2285 137.548 30.3428 136.851 30.3428C136.147 30.3428 135.512 30.2285 134.943 30C134.363 29.7715 133.827 29.4258 133.335 28.9629C132.849 28.4941 132.497 27.9756 132.28 27.4072C132.028 26.8623 131.902 26.2559 131.902 25.5879C131.902 24.9375 132.028 24.3252 132.28 23.751C132.515 23.1709 132.869 22.6553 133.344 22.2041C133.807 21.7588 134.34 21.416 134.943 21.1758C135.518 20.9531 136.153 20.8418 136.851 20.8418C137.542 20.8418 138.178 20.9531 138.758 21.1758C139.361 21.416 139.895 21.7588 140.357 22.2041C140.844 22.6436 141.204 23.1592 141.438 23.751C141.69 24.3252 141.816 24.9375 141.816 25.5879ZM150.641 21.123L151.95 25.0518C151.95 25.0752 151.956 25.0986 151.968 25.1221C152.167 25.6436 152.293 26.0801 152.346 26.4316C152.363 26.3496 152.413 26.1533 152.495 25.8428C152.571 25.5498 152.647 25.2861 152.724 25.0518L154.06 21.123H157.303L153.576 30H151.361L150.043 25.9834C149.996 25.8311 149.938 25.5967 149.867 25.2803C149.832 25.1279 149.803 25.0049 149.779 24.9111C149.756 24.8174 149.729 24.7148 149.7 24.6035C149.612 25.0488 149.498 25.4912 149.357 25.9307L149.34 25.9834L148.03 30H145.815L142.106 21.123H145.332L146.659 25.0518C146.718 25.2393 146.765 25.3857 146.8 25.4912C146.841 25.5967 146.873 25.7021 146.896 25.8076C146.961 26.0713 147.008 26.2793 147.037 26.4316C147.084 26.1562 147.198 25.749 147.38 25.21C147.397 25.1396 147.415 25.0869 147.433 25.0518L148.751 21.123H150.641Z" fill="url(#paint0_linear)"/>
<path d="M194.932 15H190L196.575 23.3509L190 32H194.932L202 23.3509L194.932 15Z" fill="white"/>
<path d="M186.932 15H182L188.575 23.3509L182 32H186.932L194 23.3509L186.932 15Z" fill="white"/>
<defs>
<linearGradient id="paint0_linear" x1="96.5" y1="12" x2="96.5" y2="38" gradientUnits="userSpaceOnUse">
<stop stop-color="white"/>
<stop offset="1" stop-color="white" stop-opacity="0"/>
</linearGradient>
</defs>
</svg>
