<svg width="123" height="30" viewBox="0 0 123 30" fill="none" xmlns="http://www.w3.org/2000/svg">
<g clip-path="url(#clip0)">
<path d="M46 18.7C39.9 18.7 35.8 15.7 35.8 11.2C35.8 6.7 39.9 3.7 46 3.7C52.1 3.7 56.2 6.7 56.2 11.2C56.2 15.7 52.1 18.7 46 18.7ZM46 0C42 0 38.4 1.1 35.8 2.9V1H31.4V29.2H35.8V19.3C38.4 21.2 42 22.2 46 22.2C54.8 22.2 60.6 17.7 60.6 11C60.6 4.5 54.7 0 46 0ZM77.3 18.7C71.2 18.7 67.1 15.7 67.1 11.2C67.1 6.7 71.2 3.7 77.3 3.7C83.4 3.7 87.5 6.7 87.5 11.2C87.5 15.7 83.4 18.7 77.3 18.7ZM77.3 0C73.3 0 69.7 1.1 67.1 2.9V1H62.7V29.2H67.1V19.3C69.7 21.2 73.3 22.2 77.3 22.2C86.1 22.2 91.9 17.7 91.9 11C91.9 4.5 86.1 0 77.3 0ZM108.4 18.7C102.3 18.7 98.2 15.7 98.2 11.2C98.2 6.7 102.3 3.7 108.4 3.7C114.5 3.7 118.6 6.7 118.6 11.2C118.6 15.7 114.5 18.7 108.4 18.7ZM108.4 0C99.6 0 93.8 4.5 93.8 11.2C93.8 17.9 99.7 22.4 108.4 22.4C117.1 22.4 123 17.8 123 11.2C123 4.5 117.2 0 108.4 0ZM14.6 18.7C8.5 18.7 4.4 15.7 4.4 11.2C4.4 6.7 8.5 3.7 14.6 3.7C20.7 3.7 24.8 6.7 24.8 11.2C24.8 15.7 20.8 18.7 14.6 18.7ZM14.6 0C5.9 0 0 4.5 0 11.2C0 17.9 5.9 22.4 14.6 22.4C23.4 22.4 29.2 17.9 29.2 11.2C29.2 4.5 23.4 0 14.6 0Z" fill="#2DC84D"/>
</g>
<defs>
<clipPath id="clip0">
<rect width="123" height="29.3" fill="white"/>
</clipPath>
</defs>
</svg>
