<svg width="256" height="37" viewBox="0 0 256 37" fill="none" xmlns="http://www.w3.org/2000/svg">
<g clip-path="url(#clip0)">
<path d="M109.6 5.5V15.6C111.1 13.4 113.2 12.7 115.3 12.7C120.3 12.7 122.6 16 122.6 21.1V30.7H119V21.2C119 17.9 117.3 16.2 114.5 16.2C111.6 16.2 109.6 18.6 109.6 21.5V30.7H105.9V5.5H109.6Z" fill="#31C2C7"/>
<path d="M141.7 12.9996H145.3C145.3 18.8996 145.3 24.7996 145.3 30.6996H141.8L141.6 27.7996C140.4 30.0996 137.7 31.0996 135.5 31.0996C130.3 31.0996 126.4 27.7996 126.4 21.7996C126.4 15.8996 130.5 12.5996 135.6 12.5996C138.1 12.5996 140.5 13.7996 141.6 15.7996L141.7 12.9996ZM130.1 21.7996C130.1 25.4996 132.7 27.6996 135.8 27.6996C143.4 27.6996 143.4 15.9996 135.8 15.9996C132.6 15.8996 130.1 18.1996 130.1 21.7996Z" fill="#31C2C7"/>
<path d="M165.2 28.3996C163.2 30.2996 161 31.1996 158.5 31.1996C153.4 31.1996 149.2 27.9996 149.2 21.8996C149.2 15.7996 153.4 12.5996 158.5 12.5996C160.9 12.5996 163 13.3996 164.9 15.1996L162.5 17.6996C161.4 16.5996 159.9 16.0996 158.5 16.0996C155.3 16.0996 152.8 18.3996 152.8 21.8996C152.8 25.5996 155.4 27.5996 158.4 27.5996C159.9 27.5996 161.5 27.0996 162.6 25.8996L165.2 28.3996Z" fill="#31C2C7"/>
<path d="M172.3 5.59961V20.2996L178.9 12.9996H183.4V13.1996L175.8 21.2996L184.5 30.3996V30.6996H180L172.4 22.4996V30.6996H168.7V5.59961H172.3Z" fill="#31C2C7"/>
<path d="M191.8 5.5V15.6C193.3 13.4 195.4 12.7 197.5 12.7C202.5 12.7 204.8 16 204.8 21.1V30.7H201.1V21.2C201.1 17.9 199.4 16.2 196.6 16.2C193.7 16.2 191.7 18.6 191.7 21.5V30.7H188V5.5H191.8Z" fill="#31C2C7"/>
<path d="M212.8 13V22.5C212.8 25.5 214.5 27.6 217.6 27.6C220.5 27.6 222.5 25.2 222.5 22.2V13H226.2V30.7H222.9L222.7 28.1C221 30.1 219.1 31 216.6 31C212.3 31 209.1 27.9 209.1 22.5V13H212.8Z" fill="#31C2C7"/>
<path d="M234.3 5.59961V15.7996C235.4 13.6996 238.4 12.5996 240.5 12.5996C245.6 12.5996 249.5 15.7996 249.5 21.7996C249.5 27.6996 245.6 30.9996 240.4 30.9996C238 30.9996 235.7 30.0996 234.3 27.7996L234.1 30.5996H230.6V5.59961H234.3ZM234.5 21.7996C234.5 25.2996 237.1 27.5996 240.2 27.5996C243.3 27.5996 245.8 25.3996 245.8 21.7996C245.8 18.1996 243.3 16.0996 240.2 16.0996C237.1 15.9996 234.5 18.3996 234.5 21.7996Z" fill="#31C2C7"/>
<path d="M85 7.6998L79.7 12.9998C79.1 13.5998 78.2 13.5998 77.6 12.9998C77 12.3998 77 11.4998 77.6 10.8998L82.9 5.5998C83.5 4.9998 83.5 4.0998 82.9 3.4998C82.3 2.8998 81.4 2.8998 80.8 3.4998L70.2 14.0998C69.6 14.6998 68.7 14.6998 68.1 14.0998C67.5 13.4998 67.5 12.5998 68.1 11.9998L78.7 1.3998C80.5 -0.400195 83.3 -0.400195 85.1 1.3998C86.9 3.1998 86.8 5.9998 85 7.6998Z" fill="#31C2C7"/>
<path d="M93.5 24.6998L82.9 35.2998C81.1 37.0998 78.3 37.0998 76.5 35.2998C74.7 33.4998 74.7 30.6998 76.5 28.8998L81.8 23.5998C82.4 22.9998 83.3 22.9998 83.9 23.5998C84.5 24.1998 84.5 25.0998 83.9 25.6998L78.7 30.9998C78.1 31.5998 78.1 32.4998 78.7 33.0998C79.3 33.6998 80.2 33.6998 80.8 33.0998L91.4 22.4998C92 21.8998 92.9 21.8998 93.5 22.4998C94.1 23.1998 94.1 24.0998 93.5 24.6998Z" fill="#31C2C7"/>
<path d="M93.5 16.2002L88.2 21.5002C87.6 22.1002 86.7 22.1002 86.1 21.5002C85.5 20.9002 85.5 20.0002 86.1 19.4002L91.4 14.1002C92 13.5002 92 12.6002 91.4 12.0002C90.8 11.4002 89.9 11.4002 89.3 12.0002L74.4 26.8002C72.6 28.6002 69.8 28.6002 68 26.8002C66.2 25.0002 66.2 22.2002 68 20.4002L73.3 15.1002C73.9 14.5002 74.8 14.5002 75.4 15.1002C76 15.7002 76 16.6002 75.4 17.2002L70.1 22.5002C69.5 23.1002 69.5 24.0002 70.1 24.6002C70.7 25.2002 71.6 25.2002 72.2 24.6002L87.2 9.8002C89 8.0002 91.8 8.0002 93.6 9.8002C95.3 11.6002 95.3 14.4002 93.5 16.2002Z" fill="#31C2C7"/>
<path d="M255.6 8.6C255.6 10.3 254.5 11.7 252.5 11.7C250.6 11.7 249.5 10.3 249.5 8.6C249.5 6.9 250.6 5.5 252.5 5.5C254.5 5.5 255.6 6.9 255.6 8.6ZM252.6 11C254 11 254.9 10 254.9 8.6C254.9 7.3 254.1 6.2 252.6 6.2C251.2 6.2 250.3 7.3 250.3 8.6C250.3 9.9 251.2 11 252.6 11ZM253.3 9C254.5 8.8 254.3 7 252.9 7C252.4 7 251.9 7 251.4 7V10.1H252.1V9.1H252.5L253.3 10.1H254.1V10L253.3 9ZM252.9 7.7C253.5 7.7 253.5 8.6 252.9 8.6H252.2V7.7H252.9Z" fill="#31C2C7"/>
<path d="M3.4 5.1H1.4V7.2H0V0C1.1 0 2.3 0 3.4 0C7 0 7 5.1 3.4 5.1ZM1.4 3.9H3.4C5.1 3.9 5.1 1.3 3.4 1.3H1.4V3.9Z" fill="#CACAC8"/>
<path d="M11.8 4.7C11.8 6.2 10.8 7.4 9.10002 7.4C7.40002 7.4 6.40002 6.2 6.40002 4.7C6.40002 3.2 7.40002 2 9.00002 2C10.6 2 11.8 3.2 11.8 4.7ZM7.70002 4.7C7.70002 5.5 8.20002 6.2 9.10002 6.2C10 6.2 10.5 5.5 10.5 4.7C10.5 3.9 10 3.2 9.10002 3.2C8.20002 3.2 7.70002 3.9 7.70002 4.7Z" fill="#CACAC8"/>
<path d="M17.1 2.09961L18.2 5.99961L19.4 2.19961H20.8L19 7.29961H17.5L17 5.79961L16.5 4.09961L16 5.79961L15.5 7.29961H14L12.2 2.19961H13.6L14.9 5.99961L16 2.09961H17.1Z" fill="#CACAC8"/>
<path d="M22.9 5.2C23 5.8 23.5 6.3 24.4 6.3C24.9 6.3 25.5 6.1 25.8 5.8L26.6 6.6C26.1 7.2 25.2 7.4 24.4 7.4C22.6 7.4 21.6 6.3 21.6 4.7C21.6 3.1 22.7 2 24.3 2C26 2 27.1 3.1 26.9 5.2H22.9ZM25.7 4.1C25.6 3.4 25.1 3.1 24.4 3.1C23.7 3.1 23.2 3.4 23 4.1H25.7Z" fill="#CACAC8"/>
<path d="M29 2.2L29.1 2.8C29.5 2.1 30 2 30.6 2C31.1 2 31.6 2.2 31.9 2.5L31.3 3.6C31 3.4 30.8 3.3 30.4 3.3C29.7 3.3 29.1 3.7 29.1 4.6V7.3H27.8V2.2H29Z" fill="#CACAC8"/>
<path d="M33.4 5.2C33.5 5.8 34 6.3 34.9 6.3C35.4 6.3 36 6.1 36.3 5.8L37.1 6.6C36.6 7.2 35.7 7.4 34.9 7.4C33.1 7.4 32.1 6.3 32.1 4.7C32.1 3.1 33.2 2 34.8 2C36.5 2 37.6 3.1 37.4 5.2H33.4ZM36.2 4.1C36.1 3.4 35.6 3.1 34.9 3.1C34.2 3.1 33.7 3.4 33.5 4.1H36.2Z" fill="#CACAC8"/>
<path d="M43.7 0V7.2H42.5L42.4 6.5C42 7.1 41.4 7.3 40.8 7.3C39.3 7.3 38.2 6.3 38.2 4.6C38.2 2.8 39.3 1.9 40.8 1.9C41.3 1.9 42.2 2.2 42.5 2.7V0H43.7ZM39.4 4.7C39.4 5.6 40 6.2 40.8 6.2C41.6 6.2 42.3 5.6 42.3 4.7C42.3 3.8 41.6 3.2 40.8 3.2C40 3.2 39.4 3.8 39.4 4.7Z" fill="#CACAC8"/>
<path d="M48.1 0V2.8C48.4 2.3 49.3 2 49.8 2C51.3 2 52.4 2.9 52.4 4.7C52.4 6.4 51.3 7.4 49.8 7.4C49.2 7.4 48.5 7.2 48.2 6.6L48 7.3H46.8V0H48.1ZM48.2 4.7C48.2 5.6 48.9 6.2 49.7 6.2C50.5 6.2 51.1 5.6 51.1 4.7C51.1 3.8 50.5 3.2 49.7 3.2C48.9 3.2 48.2 3.8 48.2 4.7Z" fill="#CACAC8"/>
<path d="M58.3 2.2002L55.2 9.4002H53.8L54.8 7.2002L52.8 2.2002H54.3L55.1 4.4002L55.6 5.8002L56.1 4.4002L57 2.2002H58.3Z" fill="#CACAC8"/>
</g>
<defs>
<clipPath id="clip0">
<rect width="255.6" height="36.6" fill="white"/>
</clipPath>
</defs>
</svg>
