<svg width="189" height="33" viewBox="0 0 189 33" fill="none" xmlns="http://www.w3.org/2000/svg">
<path d="M42.95 4.85059V13.8391C44.45 11.8812 46.55 11.2582 48.65 11.2582C53.65 11.2582 55.95 14.1951 55.95 18.7338V27.2773H52.35V18.8228C52.35 15.886 50.65 14.3731 47.85 14.3731C44.95 14.3731 42.95 16.5089 42.95 19.0898V27.2773H39.25V4.85059H42.95Z" fill="#31C2C7"/>
<path d="M75.05 11.5249H78.65C78.65 16.7759 78.65 22.0268 78.65 27.2778H75.15L74.95 24.6968C73.75 26.7438 71.05 27.6338 68.85 27.6338C63.65 27.6338 59.75 24.6968 59.75 19.3569C59.75 14.1059 63.85 11.1689 68.95 11.1689C71.45 11.1689 73.85 12.2369 74.95 14.0169L75.05 11.5249ZM63.45 19.3569C63.45 22.6498 66.05 24.6078 69.15 24.6078C76.75 24.6078 76.75 14.1949 69.15 14.1949C65.95 14.1059 63.45 16.1529 63.45 19.3569Z" fill="#31C2C7"/>
<path d="M98.55 25.2315C96.55 26.9226 94.35 27.7236 91.85 27.7236C86.75 27.7236 82.55 24.8755 82.55 19.4463C82.55 14.0171 86.75 11.1689 91.85 11.1689C94.25 11.1689 96.35 11.881 98.25 13.483L95.85 15.7081C94.75 14.7291 93.25 14.2841 91.85 14.2841C88.65 14.2841 86.15 16.3312 86.15 19.4463C86.15 22.7394 88.75 24.5195 91.75 24.5195C93.25 24.5195 94.85 24.0745 95.95 23.0064L98.55 25.2315Z" fill="#31C2C7"/>
<path d="M105.65 4.94043V18.0228L112.25 11.5261H116.75V11.7041L109.15 18.9127L117.85 27.0113V27.2783H113.35L105.75 19.9807V27.2783H102.05V4.94043H105.65Z" fill="#31C2C7"/>
<path d="M125.15 4.85059V13.8391C126.65 11.8812 128.75 11.2582 130.85 11.2582C135.85 11.2582 138.15 14.1951 138.15 18.7338V27.2773H134.45V18.8228C134.45 15.886 132.75 14.3731 129.95 14.3731C127.05 14.3731 125.05 16.5089 125.05 19.0898V27.2773H121.35V4.85059H125.15Z" fill="#31C2C7"/>
<path d="M146.15 11.5254V19.9801C146.15 22.6501 147.85 24.519 150.95 24.519C153.85 24.519 155.85 22.3831 155.85 19.7132V11.5254H159.55V27.2779H156.25L156.05 24.964C154.35 26.7439 152.45 27.5449 149.95 27.5449C145.65 27.5449 142.45 24.786 142.45 19.9801V11.5254H146.15Z" fill="#31C2C7"/>
<path d="M167.65 4.94043V14.0186C168.75 12.1496 171.75 11.1706 173.85 11.1706C178.95 11.1706 182.85 14.0186 182.85 19.3587C182.85 24.6098 178.95 27.5469 173.75 27.5469C171.35 27.5469 169.05 26.7459 167.65 24.6988L167.45 27.1909H163.95V4.94043H167.65ZM167.85 19.3587C167.85 22.4738 170.45 24.5208 173.55 24.5208C176.65 24.5208 179.15 22.5628 179.15 19.3587C179.15 16.1546 176.65 14.2856 173.55 14.2856C170.45 14.1966 167.85 16.3327 167.85 19.3587Z" fill="#31C2C7"/>
<path d="M18.35 6.80864L13.05 11.5257C12.45 12.0598 11.55 12.0598 10.95 11.5257C10.35 10.9917 10.35 10.1907 10.95 9.6567L16.25 4.9396C16.85 4.40559 16.85 3.60458 16.25 3.07057C15.65 2.53655 14.75 2.53655 14.15 3.07057L3.55 12.5048C2.95 13.0388 2.05 13.0388 1.45 12.5048C0.85 11.9708 0.85 11.1697 1.45 10.6357L12.05 1.20153C13.85 -0.400509 16.65 -0.400509 18.45 1.20153C20.25 2.80356 20.15 5.29561 18.35 6.80864Z" fill="#31C2C7"/>
<path d="M26.85 21.9376L16.25 31.3717C14.45 32.9737 11.65 32.9737 9.85 31.3717C8.05 29.7697 8.05 27.2777 9.85 25.6757L15.15 20.9586C15.75 20.4246 16.65 20.4246 17.25 20.9586C17.85 21.4926 17.85 22.2936 17.25 22.8276L12.05 27.5447C11.45 28.0787 11.45 28.8797 12.05 29.4137C12.65 29.9477 13.55 29.9477 14.15 29.4137L24.75 19.9796C25.35 19.4456 26.25 19.4456 26.85 19.9796C27.45 20.6026 27.45 21.4036 26.85 21.9376Z" fill="#31C2C7"/>
<path d="M26.85 14.3734L21.55 19.0899C20.95 19.6239 20.05 19.6239 19.45 19.0899C18.85 18.556 18.85 17.755 19.45 17.2211L24.75 12.5046C25.35 11.9706 25.35 11.1697 24.75 10.6357C24.15 10.1018 23.25 10.1018 22.65 10.6357L7.75 23.8064C5.95 25.4083 3.15 25.4083 1.35 23.8064C-0.45 22.2046 -0.45 19.7128 1.35 18.111L6.65 13.3945C7.25 12.8605 8.15 12.8605 8.75 13.3945C9.35 13.9284 9.35 14.7293 8.75 15.2633L3.45 19.9798C2.85 20.5138 2.85 21.3147 3.45 21.8486C4.05 22.3826 4.95 22.3826 5.55 21.8486L20.55 8.67794C22.35 7.0761 25.15 7.0761 26.95 8.67794C28.65 10.2798 28.65 12.7715 26.85 14.3734Z" fill="#31C2C7"/>
<path d="M188.95 7.60938C188.95 9.12226 187.85 10.3682 185.85 10.3682C183.95 10.3682 182.85 9.12226 182.85 7.60938C182.85 6.09649 183.95 4.85059 185.85 4.85059C187.85 4.85059 188.95 6.09649 188.95 7.60938ZM185.95 9.74521C187.35 9.74521 188.25 8.85528 188.25 7.60938C188.25 6.45246 187.45 5.47354 185.95 5.47354C184.55 5.47354 183.65 6.45246 183.65 7.60938C183.65 8.76629 184.55 9.74521 185.95 9.74521ZM186.65 7.96535C187.85 7.78736 187.65 6.18548 186.25 6.18548C185.75 6.18548 185.25 6.18548 184.75 6.18548V8.94427H185.45V8.05434H185.85L186.65 8.94427H187.45V8.85528L186.65 7.96535ZM186.25 6.80844C186.85 6.80844 186.85 7.60938 186.25 7.60938H185.55V6.80844H186.25Z" fill="#31C2C7"/>
</svg>
